<svg xmlns="http://www.w3.org/2000/svg" width="163.719" height="143.254" viewBox="0 0 163.719 143.254">
  <path id="quote" d="M148.37,2.25H107.44A15.353,15.353,0,0,0,92.092,17.6v40.93A15.353,15.353,0,0,0,107.44,73.877h25.581V94.342a20.484,20.484,0,0,1-20.465,20.465H110a7.656,7.656,0,0,0-7.674,7.674V137.83A7.656,7.656,0,0,0,110,145.5h2.558a51.148,51.148,0,0,0,51.162-51.162V17.6A15.353,15.353,0,0,0,148.37,2.25Zm-92.092,0H15.349A15.353,15.353,0,0,0,0,17.6v40.93A15.353,15.353,0,0,0,15.349,73.877H40.93V94.342a20.484,20.484,0,0,1-20.465,20.465H17.907a7.656,7.656,0,0,0-7.674,7.674V137.83a7.656,7.656,0,0,0,7.674,7.674h2.558A51.148,51.148,0,0,0,71.627,94.342V17.6A15.353,15.353,0,0,0,56.278,2.25Z" transform="translate(0 -2.25)" fill="#0a0a0a"/>
</svg>
